<svg version="1.1" id="Layer_1" xmlns="http://www.w3.org/2000/svg" xmlns:xlink="http://www.w3.org/1999/xlink" x="0px" y="0px"
	 width="100%" viewBox="0 0 512 512" enable-background="new 0 0 512 512" xml:space="preserve">
<path fill="#000000" opacity="1.000000" stroke="none" 
	d="
M1.000000,434.000000 
	C1.000000,315.979095 1.000000,197.958206 1.253421,79.250229 
	C6.672190,68.437889 14.812804,64.472420 26.259024,64.494019 
	C143.341583,64.714966 260.424774,64.680199 377.507599,64.543808 
	C387.510162,64.532150 394.545685,68.411598 399.927124,76.692215 
	C421.794830,110.340706 444.000641,143.769867 465.800751,177.461746 
	C481.623444,201.915649 498.631470,225.612579 513.000000,251.000000 
	C513.000000,254.692917 513.000000,258.385834 512.841675,262.845367 
	C510.540466,267.367798 508.586945,271.247375 506.226044,274.860748 
	C471.144257,328.554535 435.913483,382.151276 400.975006,435.938019 
	C394.835693,445.389252 387.123993,449.568298 375.726715,449.545380 
	C259.579865,449.311676 143.432098,449.290405 27.285425,449.564026 
	C14.791141,449.593445 6.027522,445.506714 1.000000,434.000000 
M270.500122,108.357086 
	C197.671524,108.348724 124.842926,108.339699 52.014328,108.332962 
	C44.355297,108.332260 44.321678,108.338501 44.321716,115.678017 
	C44.322197,210.171829 44.331085,304.665649 44.345463,399.159454 
	C44.346416,405.427216 44.560505,405.654510 50.864296,405.654877 
	C154.524200,405.660889 258.184113,405.634949 361.843933,405.725006 
	C366.132385,405.728729 368.821686,404.449005 371.235840,400.746918 
	C401.359985,354.551697 431.611328,308.439148 461.970886,262.398224 
	C464.539490,258.502838 464.611023,255.622955 462.003174,251.661957 
	C431.675934,205.599030 401.485474,159.445801 371.398895,113.225258 
	C369.000977,109.541451 366.302032,108.244164 361.993835,108.266945 
	C331.829956,108.426445 301.664886,108.354988 270.500122,108.357086 
z"/>
<path fill="#000000" opacity="1.000000" stroke="none" 
	d="
M139.591904,300.591431 
	C152.693909,287.505066 165.551224,274.673950 178.394318,261.828644 
	C183.149261,257.072937 183.173477,257.018402 178.275528,252.104141 
	C157.335648,231.094467 136.401657,210.078735 115.393646,189.137299 
	C109.790276,183.551651 106.483727,177.278381 107.480728,169.091141 
	C108.529526,160.478561 113.103767,154.657883 120.980782,151.399597 
	C128.978165,148.091507 136.751709,149.279999 142.929169,154.962448 
	C153.833771,164.993256 164.142395,175.673798 174.658081,186.125061 
	C186.711838,198.104950 198.805359,210.047272 210.686859,222.196350 
	C213.672272,225.248993 215.502075,224.888885 218.330444,222.032669 
	C239.671188,200.481873 261.143982,179.061722 282.595856,157.621124 
	C288.737061,151.483139 295.845917,148.210785 304.722504,150.486893 
	C320.759674,154.599060 327.043793,172.857178 316.356140,185.608673 
	C310.168915,192.990677 302.983215,199.543655 296.160492,206.383545 
	C280.744354,221.838455 265.364594,237.331985 249.757828,252.592728 
	C246.232895,256.039490 246.530273,258.209106 249.862137,261.499878 
	C271.081543,282.457581 292.092773,303.625885 313.274719,324.621765 
	C319.947418,331.235809 323.184570,338.905243 320.701691,348.121857 
	C316.522308,363.635803 298.431152,369.548157 286.001770,359.287048 
	C279.474243,353.898224 273.735626,347.543518 267.726013,341.539581 
	C251.574905,325.403717 235.472656,309.218903 219.344467,293.060028 
	C214.438034,288.144257 214.409622,288.135315 209.639923,292.905853 
	C188.550110,313.999420 167.490479,335.123230 146.380386,356.196472 
	C138.132965,364.429474 128.682312,366.454071 119.586937,362.111694 
	C106.469727,355.849182 102.912605,338.459106 112.974899,327.491821 
	C121.417175,318.290253 130.527191,309.701294 139.591904,300.591431 
z"/>
</svg>